<mxfile host="app.diagrams.net" modified="2024-07-19T09:47:04.684Z" agent="Mozilla/5.0 (Windows NT 10.0; Win64; x64) AppleWebKit/537.36 (KHTML, like Gecko) Chrome/126.0.0.0 Safari/537.36" etag="TNnGSDtS8XyQItdHOszL" version="24.7.1" type="github">
  <diagram id="C5RBs43oDa-KdzZeNtuy" name="Page-1">
    <mxGraphModel dx="1050" dy="530" grid="1" gridSize="10" guides="1" tooltips="1" connect="1" arrows="1" fold="1" page="1" pageScale="1" pageWidth="827" pageHeight="1169" math="0" shadow="0">
      <root>
        <mxCell id="WIyWlLk6GJQsqaUBKTNV-0" />
        <mxCell id="WIyWlLk6GJQsqaUBKTNV-1" parent="WIyWlLk6GJQsqaUBKTNV-0" />
        <mxCell id="ZiB9fd-2uiRG1xIH4RKu-3" value="&lt;p style=&quot;margin: 6px 0px 0px; text-align: center; font-size: 14px;&quot;&gt;&lt;b style=&quot;font-size: 14px;&quot;&gt;Student(models.Model)&lt;/b&gt;&lt;/p&gt;&lt;hr style=&quot;border-style: solid; font-size: 14px;&quot;&gt;&lt;p style=&quot;margin: 0px 0px 0px 8px; font-size: 14px;&quot;&gt;+ first_name: CharField&lt;br style=&quot;font-size: 14px;&quot;&gt;+ last_name: CharField&lt;/p&gt;&lt;p style=&quot;margin: 0px 0px 0px 8px; font-size: 14px;&quot;&gt;+ birt_date: DateField&lt;/p&gt;&lt;p style=&quot;margin: 0px 0px 0px 8px; font-size: 14px;&quot;&gt;+ notes: TextField&lt;/p&gt;&lt;p style=&quot;margin: 0px 0px 0px 8px; font-size: 14px;&quot;&gt;&lt;br style=&quot;font-size: 14px;&quot;&gt;&lt;/p&gt;&lt;p style=&quot;margin: 0px 0px 0px 8px; font-size: 14px;&quot;&gt;&lt;br style=&quot;font-size: 14px;&quot;&gt;&lt;/p&gt;" style="align=left;overflow=fill;html=1;dropTarget=0;whiteSpace=wrap;fontSize=14;fillColor=#f5f5f5;strokeColor=#666666;fontColor=#333333;" vertex="1" parent="WIyWlLk6GJQsqaUBKTNV-1">
          <mxGeometry x="45" y="164" width="180" height="140" as="geometry" />
        </mxCell>
        <mxCell id="ZiB9fd-2uiRG1xIH4RKu-4" value="" style="shape=component;jettyWidth=8;jettyHeight=4;" vertex="1" parent="ZiB9fd-2uiRG1xIH4RKu-3">
          <mxGeometry x="1" width="20" height="20" relative="1" as="geometry">
            <mxPoint x="-24" y="4" as="offset" />
          </mxGeometry>
        </mxCell>
        <mxCell id="ZiB9fd-2uiRG1xIH4RKu-5" value="&lt;b&gt;Teacher(AbstractUser)&lt;/b&gt;" style="swimlane;fontStyle=0;childLayout=stackLayout;horizontal=1;startSize=26;fillColor=none;horizontalStack=0;resizeParent=1;resizeParentMax=0;resizeLast=0;collapsible=1;marginBottom=0;whiteSpace=wrap;html=1;fontSize=14;" vertex="1" parent="WIyWlLk6GJQsqaUBKTNV-1">
          <mxGeometry x="470" y="430" width="170" height="52" as="geometry" />
        </mxCell>
        <mxCell id="ZiB9fd-2uiRG1xIH4RKu-6" value="+ notes: TextField" style="text;strokeColor=none;fillColor=none;align=left;verticalAlign=top;spacingLeft=4;spacingRight=4;overflow=hidden;rotatable=0;points=[[0,0.5],[1,0.5]];portConstraint=eastwest;whiteSpace=wrap;html=1;fontSize=14;" vertex="1" parent="ZiB9fd-2uiRG1xIH4RKu-5">
          <mxGeometry y="26" width="170" height="26" as="geometry" />
        </mxCell>
        <mxCell id="ZiB9fd-2uiRG1xIH4RKu-9" value="Group(models.Model)" style="swimlane;fontStyle=1;childLayout=stackLayout;horizontal=1;startSize=26;fillColor=none;horizontalStack=0;resizeParent=1;resizeParentMax=0;resizeLast=0;collapsible=1;marginBottom=0;whiteSpace=wrap;html=1;fontSize=16;" vertex="1" parent="WIyWlLk6GJQsqaUBKTNV-1">
          <mxGeometry x="45" y="430" width="305" height="122" as="geometry" />
        </mxCell>
        <mxCell id="ZiB9fd-2uiRG1xIH4RKu-10" value="+ title: CharField" style="text;strokeColor=none;fillColor=none;align=left;verticalAlign=top;spacingLeft=4;spacingRight=4;overflow=hidden;rotatable=0;points=[[0,0.5],[1,0.5]];portConstraint=eastwest;whiteSpace=wrap;html=1;fontSize=14;" vertex="1" parent="ZiB9fd-2uiRG1xIH4RKu-9">
          <mxGeometry y="26" width="305" height="26" as="geometry" />
        </mxCell>
        <mxCell id="ZiB9fd-2uiRG1xIH4RKu-11" value="+ leader: OneToOneField(Student)" style="text;strokeColor=none;fillColor=none;align=left;verticalAlign=top;spacingLeft=4;spacingRight=4;overflow=hidden;rotatable=0;points=[[0,0.5],[1,0.5]];portConstraint=eastwest;whiteSpace=wrap;html=1;fontSize=14;" vertex="1" parent="ZiB9fd-2uiRG1xIH4RKu-9">
          <mxGeometry y="52" width="305" height="26" as="geometry" />
        </mxCell>
        <mxCell id="ZiB9fd-2uiRG1xIH4RKu-12" value="+ students: ManyToManyField(Students)" style="text;strokeColor=none;fillColor=none;align=left;verticalAlign=top;spacingLeft=4;spacingRight=4;overflow=hidden;rotatable=0;points=[[0,0.5],[1,0.5]];portConstraint=eastwest;whiteSpace=wrap;html=1;fontSize=14;" vertex="1" parent="ZiB9fd-2uiRG1xIH4RKu-9">
          <mxGeometry y="78" width="305" height="22" as="geometry" />
        </mxCell>
        <mxCell id="ZiB9fd-2uiRG1xIH4RKu-13" value="+ notes: TextField" style="text;strokeColor=none;fillColor=none;align=left;verticalAlign=top;spacingLeft=4;spacingRight=4;overflow=hidden;rotatable=0;points=[[0,0.5],[1,0.5]];portConstraint=eastwest;whiteSpace=wrap;html=1;fontSize=14;" vertex="1" parent="ZiB9fd-2uiRG1xIH4RKu-9">
          <mxGeometry y="100" width="305" height="22" as="geometry" />
        </mxCell>
        <mxCell id="ZiB9fd-2uiRG1xIH4RKu-14" value="Subject(models.Model)" style="swimlane;fontStyle=1;childLayout=stackLayout;horizontal=1;startSize=26;fillColor=none;horizontalStack=0;resizeParent=1;resizeParentMax=0;resizeLast=0;collapsible=1;marginBottom=0;whiteSpace=wrap;html=1;fontSize=15;" vertex="1" parent="WIyWlLk6GJQsqaUBKTNV-1">
          <mxGeometry x="400" y="164" width="240" height="104" as="geometry" />
        </mxCell>
        <mxCell id="ZiB9fd-2uiRG1xIH4RKu-15" value="+ title: CharField" style="text;strokeColor=none;fillColor=none;align=left;verticalAlign=top;spacingLeft=4;spacingRight=4;overflow=hidden;rotatable=0;points=[[0,0.5],[1,0.5]];portConstraint=eastwest;whiteSpace=wrap;html=1;" vertex="1" parent="ZiB9fd-2uiRG1xIH4RKu-14">
          <mxGeometry y="26" width="240" height="26" as="geometry" />
        </mxCell>
        <mxCell id="ZiB9fd-2uiRG1xIH4RKu-16" value="+ teacher: OneToOneField(Teacher)" style="text;strokeColor=none;fillColor=none;align=left;verticalAlign=top;spacingLeft=4;spacingRight=4;overflow=hidden;rotatable=0;points=[[0,0.5],[1,0.5]];portConstraint=eastwest;whiteSpace=wrap;html=1;" vertex="1" parent="ZiB9fd-2uiRG1xIH4RKu-14">
          <mxGeometry y="52" width="240" height="26" as="geometry" />
        </mxCell>
        <mxCell id="ZiB9fd-2uiRG1xIH4RKu-17" value="+ students: ManyToManyField(Student)" style="text;strokeColor=none;fillColor=none;align=left;verticalAlign=top;spacingLeft=4;spacingRight=4;overflow=hidden;rotatable=0;points=[[0,0.5],[1,0.5]];portConstraint=eastwest;whiteSpace=wrap;html=1;" vertex="1" parent="ZiB9fd-2uiRG1xIH4RKu-14">
          <mxGeometry y="78" width="240" height="26" as="geometry" />
        </mxCell>
        <mxCell id="ZiB9fd-2uiRG1xIH4RKu-22" value="" style="edgeStyle=entityRelationEdgeStyle;fontSize=12;html=1;endArrow=ERmany;startArrow=ERmany;rounded=0;exitX=0.992;exitY=0.62;exitDx=0;exitDy=0;exitPerimeter=0;" edge="1" parent="WIyWlLk6GJQsqaUBKTNV-1" source="ZiB9fd-2uiRG1xIH4RKu-3">
          <mxGeometry width="100" height="100" relative="1" as="geometry">
            <mxPoint x="300" y="320" as="sourcePoint" />
            <mxPoint x="400" y="220" as="targetPoint" />
            <Array as="points">
              <mxPoint x="290" y="270" />
            </Array>
          </mxGeometry>
        </mxCell>
        <mxCell id="ZiB9fd-2uiRG1xIH4RKu-23" value="" style="fontSize=12;html=1;endArrow=ERmany;startArrow=ERmany;rounded=0;verticalAlign=middle;edgeStyle=orthogonalEdgeStyle;" edge="1" parent="WIyWlLk6GJQsqaUBKTNV-1" source="ZiB9fd-2uiRG1xIH4RKu-9">
          <mxGeometry width="100" height="100" relative="1" as="geometry">
            <mxPoint x="50" y="404" as="sourcePoint" />
            <mxPoint x="150" y="304" as="targetPoint" />
          </mxGeometry>
        </mxCell>
        <mxCell id="ZiB9fd-2uiRG1xIH4RKu-25" value="" style="edgeStyle=orthogonalEdgeStyle;fontSize=12;html=1;endArrow=classic;startArrow=classic;rounded=0;startFill=1;endFill=1;exitX=0.161;exitY=-0.013;exitDx=0;exitDy=0;exitPerimeter=0;" edge="1" parent="WIyWlLk6GJQsqaUBKTNV-1" source="ZiB9fd-2uiRG1xIH4RKu-9">
          <mxGeometry width="100" height="100" relative="1" as="geometry">
            <mxPoint x="10" y="404" as="sourcePoint" />
            <mxPoint x="110" y="304" as="targetPoint" />
          </mxGeometry>
        </mxCell>
        <mxCell id="ZiB9fd-2uiRG1xIH4RKu-26" value="" style="edgeStyle=orthogonalEdgeStyle;fontSize=12;html=1;endArrow=classic;startArrow=classic;rounded=0;startFill=1;endFill=1;exitX=0.311;exitY=-0.046;exitDx=0;exitDy=0;exitPerimeter=0;" edge="1" parent="WIyWlLk6GJQsqaUBKTNV-1" source="ZiB9fd-2uiRG1xIH4RKu-5">
          <mxGeometry width="100" height="100" relative="1" as="geometry">
            <mxPoint x="511.75" y="392" as="sourcePoint" />
            <mxPoint x="527.75" y="268" as="targetPoint" />
          </mxGeometry>
        </mxCell>
        <mxCell id="ZiB9fd-2uiRG1xIH4RKu-28" value="" style="line;strokeWidth=1;fillColor=none;align=left;verticalAlign=middle;spacingTop=-1;spacingLeft=3;spacingRight=3;rotatable=0;labelPosition=right;points=[];portConstraint=eastwest;strokeColor=inherit;" vertex="1" parent="WIyWlLk6GJQsqaUBKTNV-1">
          <mxGeometry x="350" y="460" width="120" height="8" as="geometry" />
        </mxCell>
      </root>
    </mxGraphModel>
  </diagram>
</mxfile>
